<?xml version="1.0" encoding="utf-8"?>
<!-- Generator: Adobe Illustrator 25.4.1, SVG Export Plug-In . SVG Version: 6.00 Build 0)  -->
<svg version="1.1" id="Capa_1" xmlns="http://www.w3.org/2000/svg" xmlns:xlink="http://www.w3.org/1999/xlink" x="0px" y="0px"
	 viewBox="0 0 300 600" style="enable-background:new 0 0 300 600;" xml:space="preserve">
<style type="text/css">
	.st0{fill:#2B4766;}
	.st1{fill:#06212E;}
	.st2{fill:#3791A7;}
</style>
<g>
	<path class="st0" d="M299.81,137.47c0,82.48,0,164.95,0,247.43c-29.98,7.63-59.49,8.08-87.92-7.45
		c-2.65-12.39,6.11-16.23,12.96-20.7c4.19-2.73,4.87-5.59,2.36-9.05c-3.1-4.28-4-9.05-4.47-14.15c-0.44-4.8-2.6-7.51-6.21-10.51
		c-6.74-5.6-19.35-8.25-12.53-23.48c0.44-0.98-0.24-3.36-1.09-4.16c-4.39-4.13-5.88-10.21-8.77-15.33c-1.98-3.5-4.15-7.72-9.49-5.66
		c-2.83,1.09-5.07-1.25-5.71-4.72c-0.53-2.88-1.42-4.89-4.56-5.07c-2.92-0.17-3.96-3.05-4-5.82c-0.06-4.42-0.97-6.93-5.6-5.82
		c-4.38,1.05-6.71,3.33-5.65,8.69c0.66,3.34,1.26,6.69,1.98,10.55c-4.86-2.53-9.98-10.76-8.18-15.03c3.33-7.93-2.2-9.24-5.74-11.96
		c-1.9-1.46-4.54-1.7-5.66-4.47c0,0,0.22-0.55,0.22-0.55l-0.5,0.14c-3.83-0.95-7.58-1-10.93,1.66c-1.21,0.96-1.99,3.56-3.75,2.14
		c-1.09-0.88-1.49-3.02-1.94-4.68c-0.49-1.8,1.81-3.97-0.92-5.98c-2.94,2.28-6.48,2.06-9.74,0.7c-4.56-1.9-6.99-2.38-8.02,4.78
		c-0.5,3.45-2.06,10.28-8.5,9.01c-11.26-2.22-11.98-1.75-16.2,9.67c-0.71,1.92-1.03,4.07-2.02,4.72
		c-5.67-9.03-12.07-1.16-17.42-1.39c-2.01-5.97,2.77-15.33-2.44-17.71c-10.12-4.62-13.56-15.18-20.25-22.71
		c-4.28-4.82-6.63-10.48-4.12-18.22c-3.98,1.86-8.18,1.79-8.91,5.71c-1.48,8.01-6.27,5.56-9.63,3.78
		c-5.72-3.03-10.9-7.36-16.3-11.15c0-50.57,0-101.14,0-151.71c3.24-1.96,6.36-2.83,9.64,0.17c5.59,5.11,11.05-2.6,16.67-0.44
		c0.04-7.74,8.38-8.45,9.19-14.9c4.56,2.12,3.2,13.64,11.6,7.57c0.3-0.21,1.74,0.67,1.91,1.29c2.07,7.87,9.44,9.71,14.19,13.25
		c6.05,4.5,13.11,12.08,22.32,7.19c3.31-1.76,6.86-0.64,8.89,2.03c5.28,6.93,10.35,7.38,16.43,1.48c2.08-2.02,5.54-3.16,6.45,1.1
		c1.21,5.66,5.28,6.55,8.57,9.39c4.42,3.82,9.13,6.58,13.78,9.77c4.16,2.86,6.92,4.13,11.11,0.61c6.2-5.22,11.42-4.12,16.5,3.12
		c2.02,2.88,5.35,4.15,7.08,6.17c5.29,6.15,11.29,9.46,18.38,11.35c0.66,0.18,0.83,2.68,1.23,4.1c0,0-0.59,0.32-0.59,0.32l0.54-0.38
		c6.49-2.53,10.98-0.9,13.66,6.93c1.55,4.52,5.05,7.62,9.52,8.86c1.71,0.47,3.3,0.85,3.4-1.88c0.09-2.52-1.42-6.11,2.19-6.43
		c2.67-0.23,5.33,2.07,6.23,4.86c1.98,6.16,5.59,6.24,10.22,4.81c2.55-0.79,5.56-2.04,7.82-1.21c9.93,3.62,13.5-5.46,18.12-11.45
		c4.62-6,8.08-6.71,10.88,0.72c2.44,6.46,6.04,12.68,6.13,20.12c0,0-0.07-0.08-0.07-0.08C288.03,135.35,293.91,140.5,299.81,137.47z
		 M51.47,193.32c5.08-1.65,6.64,5.16,10.89,5.78c1.82,0.26,3.52,1.63,5.03-0.56c2.09-3.03,0.02-5.54-0.68-8.34
		c-0.64-2.54-1.54-3.63-3.85-2.82c-3.92,1.38-7.19,2.55-11.77-0.23c-3.29-1.99-8.33,2.4-8.87,7.72c-0.27,2.64-1.39,5.22-1.39,8.16
		c6.17,0.13,8.91-3.72,10.34-9.36L51.47,193.32z M13.09,135.7l0.15,0.27c0.78,3.08,2.48,5.29,5.16,6.3c1.89,0.71,3.09,1.18,2.86,4.2
		c-0.43,5.68,7.42,10.91,11.92,8.25c1.51-0.89,2.97-2.69,1.84-4.27c-4.4-6.13-0.95-8.12,3.6-10.05c1.42-0.6,2.78-1.94,2.75-4
		c-0.02-1.35-0.9-2.37-2.05-2.17c-6.16,1.11-9.52-4.49-11.99-8.44c-4.75-7.61-8.11-1.63-11.99-0.03
		C10.47,127.77,10.71,131.48,13.09,135.7z M108.36,204.82c0.71-6.8-5.9-8.67-7.53-14.09c-1.34-4.46-3.43-3.39-5.29,0.23
		c-3.06,5.95-5.94,12.15-13.19,12.94c-1.58,0.17-4.2,1.91-1.64,4.27c4.46,4.12,9.07,8.21,14.08,11.36c2.85,1.79,3.64-3.28,5.11-4.1
		C106.18,211.92,107.92,210.63,108.36,204.82z M52.02,228.2c3.4,3.82,5.9,3.91,8.62,4.02c5.42,0.21,12.03-0.96,10.29,9.61
		c-0.38,2.32,1.74,4.48,4.3,4.06c2.22-0.36,2.83-2.45,2.8-4.75c-0.04-2.42-0.13-4.93-1.75-6.74c-3.38-3.81-6.95-7.38-8.69-12.67
		c-1.17-3.56-3.44-1.73-4.01,0.04C61.82,227.22,58.12,228.5,52.02,228.2z M16.47,96.69c-2.2,0.35-5.71,0.06-4.64,3.93
		c0.94,3.42,2.98,7.38,7.26,6.93c2.81-0.3,6.79-0.59,6.2-5.02C24.63,97.53,20.43,96.89,16.47,96.69z M288.27,297.71
		c-0.95,1.68-2.65,3.17-0.76,6.29C287.83,301.35,288.05,299.53,288.27,297.71z"/>
	<path class="st1" d="M211.88,377.44c28.44,15.53,57.94,15.08,87.92,7.45c0,69.14-0.12,138.27,0.19,207.41
		c0.03,6.94-1.74,7.66-7.13,7.65c-95.48-0.2-190.96-0.22-286.44,0.05c-5.73,0.02-6.48-1.66-6.42-7.55
		c0.31-31.26,0.14-62.52,0.14-93.78c17.97,0.77,35.57-1.48,53.13-6.13c8.65-2.29,17.53-5.39,26.83-3.56
		c3.35,0.66,6.81-0.33,6.65-5.37c-0.18-5.74,3.04-6.24,6.76-6.37c8.51-0.3,16.98-1.29,25.53-1.29c18.68,0.01,36.67-6.81,55.34-7.89
		c7.78-0.45,15.44-3.81,22.93-7.38c17.52-8.34,33.46-22.29,54.08-20.91c-15.78-0.83-31.49-0.86-47.19-0.82
		c-25.33,0.06-50.65,0.15-75.98,0.23l-0.04,0.01c-4.42-1.68-9-1.07-13.51-1.11c-38.18-0.31-76.36-0.54-114.53-0.8
		c0-15.65,0-31.3,0-46.96c6.93-0.32,13.76,1.23,20.63,1.73c15.03,1.08,30.21-1.51,45.15,2.75c5.09,1.45,11.77,1.97,15.85,0.51
		c14.41-5.16,29.28-7.65,43.92-10.97c10.47-2.38,20.65-7.91,31.83-5.85c7.9,1.46,15.8,1.82,23.55-1.11
		C191.35,373.48,201.62,375.65,211.88,377.44z"/>
	<path class="st2" d="M211.88,377.44c-10.26-1.79-20.53-3.96-30.8-0.07c-7.76,2.94-15.65,2.57-23.55,1.11
		c-11.18-2.06-21.36,3.47-31.83,5.85c-14.65,3.33-29.51,5.81-43.92,10.97c-4.08,1.46-10.76,0.94-15.85-0.51
		c-14.94-4.26-30.12-1.67-45.15-2.75c-6.88-0.5-13.71-2.05-20.63-1.73c0-63.21,0-126.42,0-189.63c5.4,3.78,10.58,8.12,16.3,11.15
		c3.37,1.78,8.16,4.23,9.63-3.78c0.73-3.93,4.93-3.86,8.91-5.71c-2.51,7.74-0.16,13.39,4.12,18.22
		c6.69,7.53,10.13,18.09,20.25,22.71c5.21,2.38,0.44,11.74,2.44,17.71c5.35,0.24,11.75-7.63,17.42,1.39
		c0.99-0.65,1.31-2.8,2.02-4.72c4.23-11.42,4.94-11.89,16.2-9.67c6.45,1.27,8.01-5.57,8.5-9.01c1.03-7.16,3.46-6.68,8.02-4.78
		c3.26,1.36,6.8,1.57,9.74-0.7c2.73,2.01,0.43,4.18,0.92,5.98c0.45,1.66,0.85,3.8,1.94,4.68c1.76,1.42,2.54-1.18,3.75-2.14
		c3.35-2.66,7.11-2.61,10.93-1.66l0.29,0.41c1.12,2.77,3.76,3.01,5.66,4.47c3.54,2.71,9.07,4.03,5.74,11.96
		c-1.8,4.27,3.32,12.5,8.18,15.03c-0.72-3.86-1.32-7.21-1.98-10.55c-1.07-5.36,1.27-7.64,5.65-8.69c4.63-1.11,5.54,1.4,5.6,5.82
		c0.04,2.77,1.08,5.65,4,5.82c3.14,0.18,4.03,2.19,4.56,5.07c0.64,3.47,2.89,5.81,5.71,4.72c5.34-2.06,7.51,2.16,9.49,5.66
		c2.89,5.12,4.38,11.2,8.77,15.33c0.85,0.8,1.52,3.18,1.09,4.16c-6.81,15.24,5.79,17.88,12.53,23.48c3.61,3,5.76,5.71,6.21,10.51
		c0.47,5.1,1.38,9.87,4.47,14.15c2.5,3.46,1.83,6.32-2.36,9.05C217.99,361.21,209.23,365.06,211.88,377.44z M123.93,254.29
		c-0.17-2.4-0.96-5.84-2.75-4.34c-6.76,5.67-16.37,3.19-22.48,11.6c-3.73,5.12-4.28,5.84,0.53,10.48c5.98,5.77,9.12-0.55,13.44-0.79
		C124.14,270.63,120.76,260.18,123.93,254.29z M159.23,299.02c-3.65-1.7-7.2-1.79-11.67,0.07
		C152.16,303.74,155.73,301.98,159.23,299.02z"/>
	<path class="st1" d="M299.81,137.47c-5.9,3.03-11.78-2.11-17.67-0.05l0.07,0.08c-0.09-7.44-3.69-13.67-6.13-20.12
		c-2.81-7.43-6.27-6.72-10.88-0.72c-4.61,5.99-8.19,15.07-18.12,11.45c-2.27-0.83-5.28,0.42-7.82,1.21
		c-4.63,1.43-8.24,1.36-10.22-4.81c-0.9-2.79-3.56-5.09-6.23-4.86c-3.61,0.31-2.1,3.91-2.19,6.43c-0.1,2.73-1.69,2.36-3.4,1.88
		c-4.46-1.24-7.97-4.34-9.52-8.86c-2.68-7.83-7.18-9.46-13.66-6.93l0.05,0.07c-0.4-1.42-0.57-3.93-1.23-4.1
		c-7.09-1.89-13.09-5.2-18.38-11.35c-1.74-2.02-5.06-3.29-7.08-6.17c-5.08-7.24-10.3-8.34-16.5-3.12
		c-4.19,3.52-6.94,2.25-11.11-0.61c-4.64-3.19-9.36-5.95-13.78-9.77c-3.29-2.84-7.36-3.73-8.57-9.39c-0.91-4.26-4.37-3.12-6.45-1.1
		c-6.08,5.9-11.14,5.45-16.43-1.48c-2.03-2.67-5.58-3.78-8.89-2.03c-9.21,4.89-16.28-2.69-22.32-7.19
		c-4.75-3.54-12.12-5.38-14.19-13.25c-0.16-0.62-1.61-1.5-1.91-1.29c-8.4,6.06-7.04-5.46-11.6-7.57c-0.81,6.44-9.15,7.16-9.19,14.9
		c-5.62-2.16-11.08,5.55-16.67,0.44c-3.29-3-6.4-2.14-9.64-0.17c0-14.75,0.16-29.5-0.11-44.25C-0.03,0.83,0.71,0.09,4.15,0.1
		C101.37,0.23,198.59,0.28,295.8,0c4.99-0.01,4,2.64,4,5.63C299.81,49.57,299.81,93.52,299.81,137.47z M124.07,65.34l0.5,0.14
		l-0.13-0.53L124.07,65.34z M172.36,86.5l-0.44-0.29l-0.02,0.6L172.36,86.5z M168.06,82.58c-0.12-0.2-0.24-0.41-0.37-0.61
		c-0.16,0.17-0.42,0.32-0.44,0.5c-0.01,0.19,0.21,0.41,0.33,0.61C167.74,82.92,167.9,82.75,168.06,82.58z"/>
	<path class="st0" d="M128.23,439.17c25.33-0.08,50.65-0.18,75.98-0.23c15.7-0.03,31.41-0.01,47.19,0.82
		c-20.63-1.37-36.57,12.57-54.08,20.91c-7.49,3.57-15.15,6.93-22.93,7.38c-18.68,1.08-36.66,7.9-55.34,7.89
		c-8.56,0-17.02,0.99-25.53,1.29c-3.72,0.13-6.94,0.63-6.76,6.37c0.15,5.04-3.3,6.03-6.65,5.37c-9.3-1.83-18.17,1.27-26.83,3.56
		c-17.56,4.65-35.16,6.91-53.13,6.13c0-13.24,0-26.49,0-39.73c14.29-0.34,28.62,0.92,42.74-3.53c5-1.58,8.65-6.75,13.72-6.65
		c11.77,0.22,23.02-4.65,34.73-4.12C103.94,445.21,116.14,442.79,128.23,439.17z"/>
	<path class="st2" d="M128.23,439.17c-12.09,3.63-24.29,6.04-36.9,5.47c-11.71-0.53-22.95,4.34-34.73,4.12
		c-5.06-0.1-8.72,5.08-13.72,6.65c-14.12,4.45-28.45,3.19-42.74,3.53c0-6.62,0-13.24,0-19.87c21.62,0.13,43.23,0.46,64.85,0.33
		c21.07-0.13,42.14,1.22,63.2-0.23L128.23,439.17z"/>
	<path class="st0" d="M128.19,439.17c-21.06,1.45-42.13,0.1-63.2,0.23c-21.61,0.13-43.23-0.2-64.85-0.33c0-0.6,0-1.2,0-1.81
		c38.18,0.26,76.36,0.49,114.53,0.8C119.19,438.1,123.77,437.5,128.19,439.17z"/>
	<path class="st2" d="M13.09,135.7c-2.38-4.22-2.62-7.93,2.26-9.94c3.88-1.6,7.24-7.58,11.99,0.03c2.47,3.95,5.82,9.55,11.99,8.44
		c1.15-0.21,2.03,0.81,2.05,2.17c0.03,2.07-1.33,3.4-2.75,4c-4.56,1.93-8,3.92-3.6,10.05c1.13,1.58-0.34,3.38-1.84,4.27
		c-4.5,2.66-12.35-2.57-11.92-8.25c0.23-3.02-0.97-3.49-2.86-4.2c-2.68-1.01-4.38-3.21-5.16-6.3c0.11-0.28,0.22-0.57,0.33-0.85
		C13.41,135.31,13.25,135.5,13.09,135.7z"/>
	<path class="st2" d="M108.36,204.82c-0.44,5.81-2.18,7.1-8.46,10.61c-1.47,0.82-2.26,5.89-5.11,4.1
		c-5.02-3.15-9.62-7.23-14.08-11.36c-2.56-2.36,0.06-4.1,1.64-4.27c7.25-0.79,10.14-6.99,13.19-12.94c1.86-3.62,3.95-4.69,5.29-0.23
		C102.46,196.15,109.07,198.02,108.36,204.82z"/>
	<path class="st2" d="M51.16,193.67c-1.43,5.65-4.17,9.5-10.34,9.36c0-2.94,1.12-5.52,1.39-8.16c0.54-5.32,5.58-9.7,8.87-7.72
		c4.58,2.77,7.85,1.6,11.77,0.23c2.31-0.81,3.21,0.28,3.85,2.82c0.71,2.8,2.77,5.31,0.68,8.34c-1.51,2.19-3.21,0.82-5.03,0.56
		c-4.26-0.61-5.81-7.43-10.89-5.78c0,0-0.42-0.16-0.42-0.16L51.16,193.67z"/>
	<path class="st2" d="M52.02,228.2c6.1,0.31,9.8-0.97,11.57-6.44c0.57-1.76,2.84-3.6,4.01-0.04c1.74,5.29,5.31,8.86,8.69,12.67
		c1.61,1.82,1.71,4.32,1.75,6.74c0.03,2.3-0.57,4.38-2.8,4.75c-2.56,0.42-4.68-1.74-4.3-4.06c1.73-10.56-4.87-9.4-10.29-9.61
		C57.92,232.11,55.43,232.02,52.02,228.2z"/>
	<path class="st2" d="M16.47,96.69c3.96,0.19,8.16,0.84,8.82,5.84c0.59,4.44-3.4,4.72-6.2,5.02c-4.28,0.46-6.32-3.5-7.26-6.93
		C10.76,96.76,14.27,97.05,16.47,96.69z"/>
	<path class="st2" d="M288.27,297.71c-0.22,1.82-0.44,3.64-0.76,6.29C285.62,300.88,287.32,299.39,288.27,297.71z"/>
	<polygon class="st1" points="194.04,112.16 193.5,112.54 194.09,112.22 	"/>
	<path class="st1" d="M282.14,137.41c0,0,0.07,0.08,0.07,0.08C282.21,137.49,282.14,137.41,282.14,137.41z"/>
	<polygon class="st2" points="141.26,240.33 141.76,240.19 141.54,240.74 	"/>
	<path class="st0" d="M123.93,254.29c-3.17,5.89,0.21,16.33-11.26,16.96c-4.32,0.24-7.46,6.56-13.44,0.79
		c-4.81-4.65-4.26-5.36-0.53-10.48c6.11-8.41,15.72-5.93,22.48-11.6C122.98,248.45,123.77,251.89,123.93,254.29z"/>
	<path class="st0" d="M159.23,299.02c-3.49,2.96-7.07,4.72-11.67,0.07C152.02,297.23,155.57,297.33,159.23,299.02z"/>
	<polygon class="st0" points="124.07,65.34 124.45,64.95 124.57,65.48 	"/>
	<polygon class="st0" points="172.36,86.5 171.91,86.81 171.92,86.21 	"/>
	<path class="st0" d="M168.06,82.58c-0.16,0.17-0.31,0.34-0.47,0.51c-0.12-0.21-0.35-0.42-0.33-0.61c0.01-0.18,0.28-0.34,0.44-0.5
		C167.81,82.18,167.94,82.38,168.06,82.58z"/>
	<path class="st0" d="M13.09,135.7c0.16-0.19,0.32-0.39,0.48-0.58c-0.11,0.28-0.22,0.57-0.33,0.85
		C13.24,135.97,13.09,135.7,13.09,135.7z"/>
	<polygon class="st0" points="51.16,193.67 51.04,193.17 51.47,193.32 	"/>
</g>
</svg>
